<svg xmlns="http://www.w3.org/2000/svg" viewBox="0 0 333.4 147.51"><defs><style>.cls-1{stroke:#000;stroke-miterlimit:10;stroke-width:10px;}</style></defs><g id="Layer_2" data-name="Layer 2"><g id="Layer_1-2" data-name="Layer 1"><path d="M116.92,57.5h9.71V67.9h1.2C130,64.49,134,56.65,146.75,56.65c16.53,0,27.95,13.12,27.95,33.75,0,20.8-11.42,33.93-27.78,33.93-12.62,0-16.88-7.85-19.09-11.43H127v34.61h-10Zm28.63,57.79c12.62,0,19.1-11.08,19.1-25.06,0-13.81-6.31-24.55-19.1-24.55-12.27,0-18.75,9.89-18.75,24.55C126.8,105.06,133.45,115.29,145.55,115.29Z"/><path d="M206.51,66h-14v38.19c0,8.52,4.26,9.89,8.69,9.89a19.58,19.58,0,0,0,4.44-.51l2,9a21,21,0,0,1-7.5,1.19c-8.52,0-17.73-5.45-17.73-16.87V66h-9.88V57.5h9.88V41.82h10.06V57.5h14Z"/><path d="M207.63,39.77a7.17,7.17,0,0,1,14.32,0,7.17,7.17,0,0,1-14.32,0Zm2.05,17.73h10V123h-10Z"/><path d="M223.07,90.57c0-19.94,11.77-33.92,29.5-33.92,13.8,0,24.2,8.18,25.91,20.45H268.42c-1.54-6-6.82-11.42-15.68-11.42-11.77,0-19.61,9.72-19.61,24.55,0,15.17,7.67,25.06,19.61,25.06,7.84,0,13.8-4.26,15.68-11.42h10.06c-1.71,11.59-11.25,20.46-25.74,20.46C234.32,124.33,223.07,110.18,223.07,90.57Z"/><path d="M281.06,104.38c0-15,13.26-17.69,25.4-19.26,11.94-1.54,16.88-1.11,16.88-6v-.34c0-8.4-4.56-13.3-13.81-13.3-9.59,0-14.83,5.12-17,9.89L282.94,72c5.11-11.93,16.36-15.34,26.25-15.34,8.35,0,24.21,2.38,24.21,23.18V123H323.34V114.1h-.51c-2.05,4.26-8,10.4-19.44,10.4C291,124.5,281.06,117.17,281.06,104.38Zm42.28-5.11V90.06c-1.71,2-13.13,3.24-17.39,3.75-7.84,1-14.83,3.41-14.83,11.08,0,7,5.8,10.57,13.81,10.57C316.86,115.46,323.34,107.45,323.34,99.27Z"/><line class="cls-1" x1="62.5" y1="125" x2="62.5"/><line class="cls-1" x1="125" y1="62.5" y2="62.5"/><line class="cls-1" x1="106.96" y1="105.81" x2="18.57" y2="17.42"/><line class="cls-1" x1="106.96" y1="17.42" x2="18.57" y2="105.81"/></g></g></svg>